<?xml version="1.0" encoding="UTF-8"?>
<svg width="251px" height="331px" viewBox="0 0 251 331" version="1.1" xmlns="http://www.w3.org/2000/svg" xmlns:xlink="http://www.w3.org/1999/xlink">
    <!-- Generator: Sketch 51.2 (57519) - http://www.bohemiancoding.com/sketch -->
    <title>wizard</title>
    <desc>Created with Sketch.</desc>
    <defs></defs>
    <g id="Welcome" stroke="none" stroke-width="1" fill="none" fill-rule="evenodd">
        <g id="logo-export-2" fill="#272727" fill-rule="nonzero">
            <g id="wizard">
                <path d="M95.8597526,168 C84.9931272,179.369451 77.8580655,187.507437 74.4545677,192.41396 C66.2705804,204.212093 63,225.222267 63,227.94577 C63,232.448316 71.2777669,213.259421 72.0064662,217.15873 C72.7131626,220.940301 75.0095969,259.981032 78.9301825,273.167325 C79.7626062,275.967055 84.3455187,261.448375 84.9037921,263.181022 C87.4913311,271.211661 89.5277316,280.802814 90.758107,290.785121 C91.7368759,298.726089 98.71324,313.904415 100.050102,315.23372 C101.386963,316.563025 102.725683,307.243333 103.726025,309.083203 C110.900681,322.279124 128.765463,331 156.073976,331 C156.419487,331 154.145142,314.395202 153.88126,311.139163 C152.807994,297.896144 154.596561,280.98331 156.073976,278.590178 C156.967647,277.142601 158.251475,287.055546 159.601902,283.151501 C161.179685,278.590178 164.979987,235.703812 167.736923,228.826654 C169.107774,225.407075 173.275807,241.53319 173.881542,239.633457 C174.690033,237.097831 177.058883,215.097594 170.819263,192.41396 C168.839893,185.218122 163.193892,177.080135 153.88126,168 L124.860852,178.753266 L95.8597526,168 Z" id="Path-2"></path>
                <path d="M58,185 C89.5362264,168.333333 112.036226,160 125.5,160 C138.963774,160 161.463774,168.333333 193,185 C157.849532,175.285162 135.349532,170.427744 125.5,170.427744 C115.650468,170.427744 93.1504684,175.285162 58,185 Z" id="Path-4"></path>
                <path d="M125.5,136 C113.964956,136 94.7636123,134.763612 67.8959698,132.290837 L79.6296374,121.78295 L59.7352215,131.088727 C19.9117405,123.750373 0,118.57026 0,115.548386 C2.33267832e-15,108.068816 71.194343,101 125.5,101 C179.805657,101 251,108.068816 251,115.548386 C251,123.027955 177.736625,136 125.5,136 Z" id="Path-5"></path>
                <path d="M96,111 C99.3771108,88.7573971 103.428732,68.9000748 108.154862,51.4280331 C111.338611,39.6580262 111.384348,24.1888069 114.758983,15.3627802 C117.319123,8.66698469 126.248419,1.33922857 130.94989,0.30260285 C139.484034,-1.57908762 158.420477,5.8714599 160.580247,7.33779199 C163.064916,9.02470683 166.204833,17.0690177 170,31.4707246 C162.403025,22.0435234 157.69855,16.6742086 155.886575,15.3627802 C154.186174,14.1321053 142.638996,9.31575852 137.162166,9.31575852 C136.89101,9.31575852 139.366457,10.6080744 144.588505,13.192706 C144.491324,13.648176 144.419728,13.992415 144.373718,14.225423 C142.458675,23.923692 142.530271,37.6818843 144.588505,55.5 C146.720915,73.9602554 150.486938,92.4602554 155.886575,111 L96,111 Z" id="Path-3"></path>
            </g>
        </g>
    </g>
</svg>