<?xml version="1.0" encoding="UTF-8"?>
<svg width="606px" height="800px" viewBox="0 0 606 800" version="1.1" xmlns="http://www.w3.org/2000/svg" xmlns:xlink="http://www.w3.org/1999/xlink">
    <!-- Generator: Sketch 51.2 (57519) - http://www.bohemiancoding.com/sketch -->
    <title>wizard</title>
    <desc>Created with Sketch.</desc>
    <defs>
        <linearGradient x1="50%" y1="0%" x2="50%" y2="100%" id="linearGradient-1">
            <stop stop-color="#000000" offset="0%"></stop>
            <stop stop-color="#343434" offset="100%"></stop>
        </linearGradient>
        <linearGradient x1="50%" y1="-62.0175022%" x2="50%" y2="100%" id="linearGradient-2">
            <stop stop-color="#373737" offset="0%"></stop>
            <stop stop-color="#000000" offset="100%"></stop>
        </linearGradient>
    </defs>
    <g id="Welcome" stroke="none" stroke-width="1" fill="none" fill-rule="evenodd">
        <g id="logo---export" fill-rule="nonzero">
            <g id="wizard">
                <path d="M232.508866,407 C206.215513,434.412234 188.951212,454.033269 180.715963,465.863106 C160.913637,494.308912 153,544.965344 153,551.531825 C153,562.387657 173.029239,516.122408 174.792432,525.52381 C176.502385,534.641338 182.058935,628.770219 191.545352,660.562936 C193.55952,667.313206 204.648532,632.308045 205.999354,636.485531 C212.260274,655.847747 217.187636,678.972428 220.164705,703.0402 C222.532977,722.186216 239.413286,758.78181 242.648014,761.986821 C245.882741,765.191832 249.121965,742.721656 251.542435,747.157661 C268.902542,778.973593 312.128934,800 378.205782,800 C379.041794,800 373.538692,759.965119 372.900192,752.11467 C370.303272,720.185182 374.630966,679.407612 378.205782,673.637669 C380.368146,670.147498 383.474551,694.048035 386.742103,684.635214 C390.559773,673.637669 399.755148,570.236799 406.425947,553.655676 C409.742917,545.410923 419.828069,584.291679 421.293731,579.711341 C423.24999,573.597838 428.981762,520.554322 413.884109,465.863106 C409.094741,448.513631 395.433436,428.892596 372.900192,407 L302.68117,432.926586 L232.508866,407 Z" id="Path-2" fill="url(#linearGradient-1)"></path>
                <path d="M141,447 C216.920545,407 271.087212,387 303.5,387 C335.912788,387 390.079455,407 466,447 C381.378502,423.68439 327.211835,412.026584 303.5,412.026584 C279.788165,412.026584 225.621498,423.68439 141,447 Z" id="Path-4" fill="#000000"></path>
                <path d="M303,327 C275.150451,327 228.791829,324.032669 163.924134,318.098008 L192.253228,292.87908 L144.221292,315.212944 C48.0737639,297.600896 0,285.168623 0,277.916126 C5.63188471e-15,259.965159 171.887537,243 303,243 C434.112463,243 606,259.965159 606,277.916126 C606,295.867092 429.11711,327 303,327 Z" id="Path-5" fill="#000000"></path>
                <path d="M231,269 C239.123321,215.096755 248.869111,166.974055 260.237371,124.6319 C267.895578,96.1081896 268.005594,58.6197213 276.12296,37.2305215 C282.281135,21.0037737 303.759711,3.24551788 315.068655,0.733334834 C335.59673,-3.82679792 381.146553,14.2290334 386.341676,17.782577 C392.31831,21.8706859 399.871085,41.3654573 409,76.2668911 C390.726196,53.420791 379.410026,40.4086677 375.05149,37.2305215 C370.961338,34.2480749 343.185693,22.5760274 330.011696,22.5760274 C329.359457,22.5760274 335.313909,25.7078559 347.875053,31.9715128 C347.641293,33.0753095 347.469077,33.9095463 347.358403,34.4742232 C342.751949,57.9772355 342.924165,91.319161 347.875053,134.5 C353.004363,179.237015 362.063176,224.070349 375.05149,269 L231,269 Z" id="Path-3" fill="url(#linearGradient-2)"></path>
            </g>
        </g>
    </g>
</svg>